<svg width="20" height="21" viewBox="0 0 20 21" fill="none" xmlns="http://www.w3.org/2000/svg">
<path d="M10 5.1333H18.3333" stroke="#718096" stroke-width="1.5" stroke-miterlimit="10" stroke-linecap="round" stroke-linejoin="round"/>
<path d="M11.85 2.16675H16.4833C17.9667 2.16675 18.3333 2.53342 18.3333 4.00008V7.42508C18.3333 8.89175 17.9667 9.25841 16.4833 9.25841H11.85C10.3667 9.25841 10 8.89175 10 7.42508V4.00008C10 2.53342 10.3667 2.16675 11.85 2.16675Z" stroke="#718096" stroke-width="1.5" stroke-linecap="round" stroke-linejoin="round"/>
<path d="M1.66667 14.7166H10" stroke="#718096" stroke-width="1.5" stroke-miterlimit="10" stroke-linecap="round" stroke-linejoin="round"/>
<path d="M3.51667 11.75H8.15C9.63334 11.75 10 12.1167 10 13.5833V17.0083C10 18.475 9.63334 18.8417 8.15 18.8417H3.51667C2.03334 18.8417 1.66667 18.475 1.66667 17.0083V13.5833C1.66667 12.1167 2.03334 11.75 3.51667 11.75Z" stroke="#718096" stroke-width="1.5" stroke-linecap="round" stroke-linejoin="round"/>
<path d="M18.3333 13C18.3333 16.225 15.725 18.8333 12.5 18.8333L13.375 17.375" stroke="#718096" stroke-width="1.5" stroke-linecap="round" stroke-linejoin="round"/>
<path d="M1.66667 8.00008C1.66667 4.77508 4.27501 2.16675 7.5 2.16675L6.62502 3.62508" stroke="#718096" stroke-width="1.5" stroke-linecap="round" stroke-linejoin="round"/>
</svg>
