<svg width="20" height="21" viewBox="0 0 20 21" fill="none" xmlns="http://www.w3.org/2000/svg">
<mask id="path-1-inside-1_1408_12566" fill="white">
<path d="M14.825 19.4583H5.17501C2.89167 19.4583 1.04167 17.6 1.04167 15.3167V9.14166C1.04167 8.00833 1.74167 6.58333 2.64167 5.88333L7.13334 2.38333C8.48334 1.33333 10.6417 1.28333 12.0417 2.26667L17.1917 5.875C18.1833 6.56666 18.9583 8.05 18.9583 9.25833V15.325C18.9583 17.6 17.1083 19.4583 14.825 19.4583ZM7.90001 3.36667L3.40834 6.86666C2.81667 7.33333 2.29167 8.39166 2.29167 9.14166V15.3167C2.29167 16.9083 3.58334 18.2083 5.17501 18.2083H14.825C16.4167 18.2083 17.7083 16.9167 17.7083 15.325V9.25833C17.7083 8.45833 17.1333 7.35 16.475 6.9L11.325 3.29167C10.375 2.625 8.80834 2.65833 7.90001 3.36667Z"/>
</mask>
<path d="M14.825 19.4583H5.17501C2.89167 19.4583 1.04167 17.6 1.04167 15.3167V9.14166C1.04167 8.00833 1.74167 6.58333 2.64167 5.88333L7.13334 2.38333C8.48334 1.33333 10.6417 1.28333 12.0417 2.26667L17.1917 5.875C18.1833 6.56666 18.9583 8.05 18.9583 9.25833V15.325C18.9583 17.6 17.1083 19.4583 14.825 19.4583ZM7.90001 3.36667L3.40834 6.86666C2.81667 7.33333 2.29167 8.39166 2.29167 9.14166V15.3167C2.29167 16.9083 3.58334 18.2083 5.17501 18.2083H14.825C16.4167 18.2083 17.7083 16.9167 17.7083 15.325V9.25833C17.7083 8.45833 17.1333 7.35 16.475 6.9L11.325 3.29167C10.375 2.625 8.80834 2.65833 7.90001 3.36667Z" fill="#718096"/>
<path d="M2.64167 5.88333L3.56258 7.06736L3.56365 7.06653L2.64167 5.88333ZM7.13334 2.38333L6.21243 1.1993L6.21136 1.20013L7.13334 2.38333ZM12.0417 2.26667L11.1795 3.49414L11.1809 3.49514L12.0417 2.26667ZM17.1917 5.875L16.3309 7.10348L16.3336 7.1053L17.1917 5.875ZM7.90001 3.36667L8.82198 4.54987L8.82242 4.54952L7.90001 3.36667ZM3.40834 6.86666L2.48635 5.68344L2.47941 5.68892L3.40834 6.86666ZM16.475 6.9L15.6143 8.12847L15.6214 8.13345L15.6285 8.13834L16.475 6.9ZM11.325 3.29167L10.4634 4.5195L10.4643 4.52014L11.325 3.29167ZM14.825 17.9583H5.17501V20.9583H14.825V17.9583ZM5.17501 17.9583C3.72403 17.9583 2.54167 16.7755 2.54167 15.3167H-0.458328C-0.458328 18.4245 2.05931 20.9583 5.17501 20.9583V17.9583ZM2.54167 15.3167V9.14166H-0.458328V15.3167H2.54167ZM2.54167 9.14166C2.54167 8.8586 2.63707 8.44595 2.85057 8.01122C3.06383 7.57697 3.33375 7.24534 3.56258 7.06736L1.72076 4.6993C1.0496 5.22132 0.519513 5.95219 0.157774 6.68878C-0.203727 7.42488 -0.458328 8.2914 -0.458328 9.14166H2.54167ZM3.56365 7.06653L8.05531 3.56653L6.21136 1.20013L1.7197 4.70013L3.56365 7.06653ZM8.05425 3.56736C8.88246 2.9232 10.3173 2.88852 11.1795 3.49414L12.9038 1.03919C10.9661 -0.321856 8.08422 -0.256534 6.21243 1.1993L8.05425 3.56736ZM11.1809 3.49514L16.3309 7.10347L18.0524 4.64652L12.9024 1.03819L11.1809 3.49514ZM16.3336 7.1053C16.5867 7.28184 16.883 7.61873 17.1173 8.06731C17.3516 8.51597 17.4583 8.95094 17.4583 9.25833H20.4583C20.4583 8.35739 20.1776 7.44652 19.7765 6.67852C19.3753 5.91044 18.7883 5.15982 18.0498 4.64469L16.3336 7.1053ZM17.4583 9.25833V15.325H20.4583V9.25833H17.4583ZM17.4583 15.325C17.4583 16.7735 16.2779 17.9583 14.825 17.9583V20.9583C17.9387 20.9583 20.4583 18.4265 20.4583 15.325H17.4583ZM6.97803 2.18346L2.48636 5.68346L4.33031 8.04987L8.82198 4.54987L6.97803 2.18346ZM2.47941 5.68892C1.9536 6.10364 1.55043 6.6911 1.28248 7.23518C1.01544 7.77739 0.791672 8.46128 0.791672 9.14166H3.79167C3.79167 9.07205 3.8304 8.85178 3.97378 8.56065C4.11624 8.27139 4.27141 8.09636 4.33727 8.04441L2.47941 5.68892ZM0.791672 9.14166V15.3167H3.79167V9.14166H0.791672ZM0.791672 15.3167C0.791672 17.7311 2.74928 19.7083 5.17501 19.7083V16.7083C4.41739 16.7083 3.79167 16.0855 3.79167 15.3167H0.791672ZM5.17501 19.7083H14.825V16.7083H5.17501V19.7083ZM14.825 19.7083C17.2451 19.7083 19.2083 17.7451 19.2083 15.325H16.2083C16.2083 16.0882 15.5882 16.7083 14.825 16.7083V19.7083ZM19.2083 15.325V9.25833H16.2083V15.325H19.2083ZM19.2083 9.25833C19.2083 8.54224 18.9658 7.82408 18.6685 7.25418C18.3719 6.68565 17.9196 6.07052 17.3215 5.66165L15.6285 8.13834C15.6887 8.17948 15.8531 8.34351 16.0086 8.64165C16.1634 8.93842 16.2083 9.17442 16.2083 9.25833H19.2083ZM17.3357 5.67152L12.1857 2.06319L10.4643 4.52014L15.6143 8.12847L17.3357 5.67152ZM12.1866 2.06383C11.3986 1.51085 10.4385 1.29492 9.56433 1.31389C8.69096 1.33285 7.73902 1.59003 6.97759 2.18381L8.82242 4.54952C8.96932 4.43497 9.25488 4.32132 9.62943 4.31319C10.0032 4.30508 10.3014 4.40582 10.4634 4.5195L12.1866 2.06383Z" fill="#718096" mask="url(#path-1-inside-1_1408_12566)"/>
<mask id="path-3-inside-2_1408_12566" fill="white">
<path d="M10 16.125C9.65833 16.125 9.375 15.8417 9.375 15.5V13C9.375 12.6583 9.65833 12.375 10 12.375C10.3417 12.375 10.625 12.6583 10.625 13V15.5C10.625 15.8417 10.3417 16.125 10 16.125Z"/>
</mask>
<path d="M10 16.125C9.65833 16.125 9.375 15.8417 9.375 15.5V13C9.375 12.6583 9.65833 12.375 10 12.375C10.3417 12.375 10.625 12.6583 10.625 13V15.5C10.625 15.8417 10.3417 16.125 10 16.125Z" fill="#718096"/>
<path d="M10 14.625C10.4868 14.625 10.875 15.0132 10.875 15.5H7.875C7.875 16.6701 8.82991 17.625 10 17.625V14.625ZM10.875 15.5V13H7.875V15.5H10.875ZM10.875 13C10.875 13.4868 10.4868 13.875 10 13.875V10.875C8.82991 10.875 7.875 11.8299 7.875 13H10.875ZM10 13.875C9.51324 13.875 9.125 13.4868 9.125 13H12.125C12.125 11.8299 11.1701 10.875 10 10.875V13.875ZM9.125 13V15.5H12.125V13H9.125ZM9.125 15.5C9.125 15.0132 9.51324 14.625 10 14.625V17.625C11.1701 17.625 12.125 16.6701 12.125 15.5H9.125Z" fill="#718096" mask="url(#path-3-inside-2_1408_12566)"/>
</svg>
