<svg width="16" height="19" viewBox="0 0 16 19" fill="none" xmlns="http://www.w3.org/2000/svg">
<path d="M5.25 11.3333L10.75 5.83333L5.25 11.3333ZM5.70834 6.29167H5.7175H5.70834ZM10.2917 10.875H10.3008H10.2917ZM14.4167 17.75V3.08333C14.4167 2.5971 14.2235 2.13079 13.8797 1.78697C13.5359 1.44315 13.0696 1.25 12.5833 1.25H3.41667C2.93044 1.25 2.46412 1.44315 2.12031 1.78697C1.77649 2.13079 1.58334 2.5971 1.58334 3.08333V17.75L4.79167 15.9167L8 17.75L11.2083 15.9167L14.4167 17.75ZM6.16667 6.29167C6.16667 6.41322 6.11838 6.5298 6.03243 6.61576C5.94647 6.70171 5.82989 6.75 5.70834 6.75C5.58678 6.75 5.4702 6.70171 5.38425 6.61576C5.29829 6.5298 5.25 6.41322 5.25 6.29167C5.25 6.17011 5.29829 6.05353 5.38425 5.96758C5.4702 5.88162 5.58678 5.83333 5.70834 5.83333C5.82989 5.83333 5.94647 5.88162 6.03243 5.96758C6.11838 6.05353 6.16667 6.17011 6.16667 6.29167ZM10.75 10.875C10.75 10.9966 10.7017 11.1131 10.6158 11.1991C10.5298 11.285 10.4132 11.3333 10.2917 11.3333C10.1701 11.3333 10.0535 11.285 9.96758 11.1991C9.88163 11.1131 9.83334 10.9966 9.83334 10.875C9.83334 10.7534 9.88163 10.6369 9.96758 10.5509C10.0535 10.465 10.1701 10.4167 10.2917 10.4167C10.4132 10.4167 10.5298 10.465 10.6158 10.5509C10.7017 10.6369 10.75 10.7534 10.75 10.875Z" stroke="#718096" stroke-width="1.5" stroke-linecap="round" stroke-linejoin="round"/>
</svg>
